<?xml version="1.0" encoding="iso-8859-1"?>
<!-- Uploaded to: SVG Repo, www.svgrepo.com, Generator: SVG Repo Mixer Tools -->
<svg height="32px" width="32px" version="1.1" id="Layer_1"
     xmlns="http://www.w3.org/2000/svg"
     viewBox="0 0 340.358 340.358" xml:space="preserve">
<g>
	<g>
		<circle style="fill:#E64C3D;" cx="166.658" cy="164.129" r="137.1"/>
		<path style="fill:#2C2F33;" d="M153.858,173.229h25.4c10.4,0,18.8,8.4,18.8,18.8c0,10.4-8.4,18.8-18.8,18.8h-45.7
			c-5,0-9.1,4.1-9.1,9.1s4.1,9.1,9.1,9.1h23.9v17.9c0,5,4.1,9.1,9.1,9.1s9.1-4.1,9.1-9.1v-17.9h3.7c20.4,0,37-16.6,37-37
			s-16.6-37-37-37h-25.4c-10.4,0-18.8-8.4-18.8-18.8s8.4-18.8,18.8-18.8h44.9c5,0,9.1-4.1,9.1-9.1s-4.1-9.1-9.1-9.1h-23.1v-17.5
			c0-5-4.1-9.1-9.1-9.1s-9.1,4.1-9.1,9.1v17.6h-3.7c-20.4,0-37,16.6-37,37C116.958,156.629,133.558,173.229,153.858,173.229z"/>
		<path style="fill:#2C2F33;" d="M166.658,310.229c80.6,0,146.1-65.6,146.1-146.1s-65.6-146.2-146.1-146.2s-146.2,65.6-146.2,146.2
			S86.058,310.229,166.658,310.229z M166.658,36.129c70.6,0,128,57.4,128,128s-57.4,128-128,128s-128-57.4-128-128
			S96.058,36.129,166.658,36.129z"/>
	</g>
</g>
</svg>
